<svg xmlns="http://www.w3.org/2000/svg" viewBox="0 0 448 512">
  <path fill="#ffffff" d="M384 32H64C28.65 32 0 60.65 0 96v320c0 35.35 28.65 64 64 64h320c35.35 0 64-28.65 64-64V96c0-35.35-28.65-64-64-64zM240 408c0 4.42-3.58 8-8 8h-48c-4.42 0-8-3.58-8-8v-48c0-4.42 3.58-8 8-8h48c4.42 0 8 3.58 8 8v48zm0-96c0 4.42-3.58 8-8 8h-48c-4.42 0-8-3.58-8-8v-48c0-4.42 3.58-8 8-8h48c4.42 0 8 3.58 8 8v48zm96 96c0 4.42-3.58 8-8 8h-48c-4.42 0-8-3.58-8-8v-48c0-4.42 3.58-8 8-8h48c4.42 0 8 3.58 8 8v48zm0-96c0 4.42-3.58 8-8 8h-48c-4.42 0-8-3.58-8-8v-48c0-4.42 3.58-8 8-8h48c4.42 0 8 3.58 8 8v48zm0-96c0 4.42-3.58 8-8 8H120c-4.42 0-8-3.58-8-8v-48c0-4.42 3.58-8 8-8h208c4.42 0 8 3.58 8 8v48z"/>
</svg>

